<svg xmlns="http://www.w3.org/2000/svg" class="svg-logo" width="2400" height="2400" viewBox="0 0 630 430" style="height: auto;"><rect width="630" height="630" y="-100" rx="0" ry="0" fill="#000000" fill-opacity="1"></rect><g data-element="wrapper" transform="translate(-190.8483947753948 -65.02667236328358) scale(1.20000000000001)"><g data-element="container" transform="translate(246.60001911642206 146.60001218060884) scale(0.228)"><g ><path id="fill_x5F_1" d="M573.272,326.727L600,299.999l-26.728-26.728V26.728H326.727L299.999,0l-26.728,26.728
	H26.728v246.543L0,299.999l26.728,26.728v246.545h246.543L299.999,600l26.728-26.728h246.545V326.727z" fill="transparent" fill-opacity="0"></path>
<path id="frame_x5F_1_28_" d="M573.272,326.727L600,299.999l-26.728-26.728V26.728H326.727L299.999,0l-26.728,26.728
	H26.728v246.543L0,299.999l26.728,26.728v246.544h246.543l26.728,26.728l26.728-26.728h246.544V326.727H573.272z M537.311,362.689
	v174.623H362.689l8.207-8.207h-8.59l-62.307,62.307l-62.306-62.307h-8.589l8.207,8.207H62.689V362.689l8.207,8.207v-8.589
	L8.589,299.999l62.307-62.307v-8.589l-8.207,8.207V62.689h174.622l-8.207,8.207h8.589L300,8.589l62.308,62.307h8.589l-8.207-8.207
	h174.623v174.623l-8.207-8.207v8.589L591.413,300l-62.307,62.307v8.59L537.311,362.689z M565.896,34.104v231.79l-6.073-6.073V40.178
	H340.178l-6.074-6.073H565.896z M34.104,34.104h231.789l-6.073,6.073H40.178V259.82l-6.073,6.073V34.104z M34.104,565.896V334.103
	l6.073,6.074v219.644h219.643l6.073,6.073L34.104,565.896L34.104,565.896z M334.103,565.896l6.074-6.073h219.643V340.178
	l6.073-6.074v231.791H334.103V565.896z M330.027,529.104h24.181l-54.209,54.209l-54.208-54.209h24.181l30.027,30.027
	L330.027,529.104z M70.896,245.79v24.182l-30.027,30.027l30.027,30.028v24.182l-8.207-8.207L16.688,300L70.896,245.79z
	 M529.104,354.208v-24.181l30.027-30.028l-30.027-30.027v-24.181l54.209,54.208L529.104,354.208z M354.209,70.896h-24.182
	l-30.028-30.027l-30.027,30.027H245.79l54.209-54.209L354.209,70.896z" fill="#ffffff" fill-opacity="1"></path></g></g><g ><path d="M324.86 241.67L305.13 241.67L305.13 240.90L306.66 240.28Q308.20 239.75 308.70 238.83Q309.20 237.90 309.20 236.37L309.20 236.37L309.20 196.28Q309.20 194.74 308.74 193.82Q308.28 192.90 306.66 192.36L306.66 192.36L305.13 191.75L305.13 190.98L324.86 190.98L324.86 191.75L323.33 192.36Q321.79 192.90 321.29 193.82Q320.79 194.74 320.79 196.28L320.79 196.28L320.79 236.37Q320.79 237.90 321.29 238.79Q321.79 239.67 323.33 240.28L323.33 240.28L324.86 240.90L324.86 241.67Z" data-element="initials" data-text-path="" data-text="I" data-font-family="DM Serif Display" fill="#ffffff" fill-opacity="1"></path><path d="M410.13 166.27L410.13 203.20Q410.57 205.12 413.07 205.12L413.07 205.12L417.23 205.12L417.23 208.00L396.88 208.00L396.88 205.12L401.42 205.06Q403.21 204.80 404.05 203.20L404.05 203.20L404.05 166.27Q403.79 164.80 401.04 164.35L401.04 164.35L396.88 164.35L396.88 161.47L417.23 161.47L417.23 164.35L412.75 164.35Q411.02 164.61 410.13 166.27L410.13 166.27ZM431.57 174.72L431.57 181.38Q433.93 175.30 442.00 175.30L442.00 175.30Q454.35 175.36 454.35 191.10L454.35 191.10L454.35 203.20Q454.80 205.12 456.65 205.12L456.65 205.12L459.09 205.12L459.09 208.00L444.30 208.00L444.30 205.12L447.05 205.06Q448.33 204.80 449.04 203.20L449.04 203.20L449.04 192.38Q449.04 178.82 441.55 178.82L441.55 178.82Q431.57 178.82 431.57 191.81L431.57 191.81L431.57 203.20Q432.01 205.12 433.87 205.12L433.87 205.12L436.30 205.12L436.30 208.00L421.52 208.00L421.52 205.12L424.27 205.06Q425.55 204.80 426.25 203.20L426.25 203.20L426.25 181.12L421.45 181.12L421.45 179.84L429.07 174.72L431.57 174.72ZM489.81 161.09L489.81 164.29L488.65 163.97Q487.50 163.65 484.59 163.65Q481.68 163.65 479.50 165.50Q477.33 167.36 477.33 170.75L477.33 170.75L477.33 178.05L486.73 178.05L486.73 180.80L477.33 180.80L477.33 203.20Q477.77 205.12 480.27 205.12L480.27 205.12L484.24 205.12L484.24 208.00L464.65 208.00L464.65 205.12L469.01 205.06Q470.80 204.80 471.63 203.20L471.63 203.20L471.63 180.80L462.93 180.80L462.93 178.05L471.63 178.05L471.63 173.12Q471.63 167.68 475.21 164.16Q478.80 160.64 483.50 160.64Q488.21 160.64 489.81 161.09L489.81 161.09ZM496.78 160.64L499.28 160.64L499.28 203.20Q499.73 205.12 500.94 205.12L500.94 205.12L504.33 205.12L504.33 208.00L488.91 208.00L488.91 205.12L492.62 205.06Q492.81 204.80 493.97 203.20L493.97 203.20L493.97 167.04L489.17 167.04L489.17 165.76L496.78 160.64ZM511.73 167.84Q510.48 166.59 510.48 164.86Q510.48 163.14 511.73 161.89Q512.97 160.64 514.70 160.64Q516.43 160.64 517.68 161.89Q518.93 163.14 518.93 164.86Q518.93 166.59 517.68 167.84Q516.43 169.09 514.70 169.09Q512.97 169.09 511.73 167.84ZM517.26 174.72L517.26 203.20Q517.71 205.12 519.57 205.12L519.57 205.12L522.25 205.12L522.25 208.00L506.57 208.00L506.57 205.12L509.97 205.06Q511.25 204.80 511.95 203.20L511.95 203.20L511.95 181.12L507.15 181.12L507.15 179.84L514.77 174.72L517.26 174.72ZM543.44 195.20L536.97 203.20Q537.49 205.12 539.73 205.12L539.73 205.12L541.97 205.12L541.97 208.00L525.13 208.00L525.13 204.99L529.61 204.93Q531.79 204.67 532.69 203.20L532.69 203.20L541.26 192.51L532.11 180.80Q531.15 179.20 528.78 178.88L528.78 178.88L525.77 178.88L525.77 176.00L544.01 176.00L544.01 178.88L541.97 178.88Q540.17 179.33 539.79 180.80L539.79 180.80L545.17 187.65L550.67 180.80Q550.22 179.33 549.07 178.88L549.07 178.88L546.89 178.88L546.89 176.00L561.36 176.00L561.36 179.01L557.97 179.01L557.97 179.07Q555.85 179.33 554.96 180.80L554.96 180.80L547.28 190.34L557.39 203.20Q559.18 204.74 560.91 205.06L560.91 205.06L564.17 205.12L564.17 208.00L545.42 208.00L545.42 205.12L547.53 205.12Q549.20 205.12 549.71 203.20L549.71 203.20L543.44 195.20Z" data-element="company-name" data-text-path="" data-text="Inflix" data-font-family="Sawarabi Mincho" fill="#ffffff" fill-opacity="1"></path><path d="M435.37 241.00L435.37 228.62L433.35 228.62L433.35 227.46L435.37 227.46L435.37 226.60Q435.37 221.70 440.41 221.70L440.41 221.70Q442.22 221.70 442.86 222.14L442.86 222.14Q443.35 222.51 443.87 223.43L443.87 223.43L443.00 224.15Q442.14 222.86 440.27 222.86L440.27 222.86Q437.96 222.86 437.96 226.60L437.96 226.60L437.96 227.46L441.99 227.46L441.99 228.62L437.96 228.62L437.96 241.00L435.37 241.00ZM449.74 241.29Q447.78 241.29 446.34 240.35Q444.90 239.42 444.15 237.80Q443.41 236.19 443.41 234.23L443.41 234.23Q443.41 232.27 444.15 230.66Q444.90 229.05 446.34 228.11Q447.78 227.18 449.74 227.18L449.74 227.18Q451.70 227.18 453.14 228.11Q454.58 229.05 455.33 230.66Q456.08 232.27 456.08 234.23L456.08 234.23Q456.08 236.19 455.33 237.80Q454.58 239.42 453.14 240.35Q451.70 241.29 449.74 241.29L449.74 241.29ZM449.74 240.14Q450.81 240.14 451.63 239.36Q452.45 238.58 452.90 237.23Q453.34 235.87 453.34 234.23L453.34 234.23Q453.34 232.59 452.90 231.24Q452.45 229.88 451.63 229.11Q450.81 228.33 449.74 228.33L449.74 228.33Q448.68 228.33 447.86 229.11Q447.03 229.88 446.59 231.24Q446.14 232.59 446.14 234.23L446.14 234.23Q446.14 235.87 446.59 237.23Q447.03 238.58 447.86 239.36Q448.68 240.14 449.74 240.14L449.74 240.14ZM459.68 241.00L459.68 230.92Q459.68 229.45 459.27 228.75Q458.87 228.04 457.66 228.04L457.66 228.04L457.37 228.04L457.37 227.46L459.68 227.46Q460.77 227.46 461.33 227.77Q461.90 228.07 462.13 228.76L462.13 228.76L462.27 228.76Q462.79 228.10 463.67 227.64Q464.54 227.18 465.73 227.18L465.73 227.18Q466.88 227.18 467.45 227.61L467.45 227.61Q467.94 227.98 468.46 228.90L468.46 228.90L467.31 229.77Q466.99 229.34 466.39 229.12Q465.78 228.90 465.01 228.90L465.01 228.90Q464.14 228.90 463.42 229.29Q462.70 229.68 462.27 230.34L462.27 230.34L462.27 241.00L459.68 241.00ZM483.35 241.29Q481.39 241.29 480.04 240.35Q478.69 239.42 477.99 237.82Q477.30 236.22 477.30 234.23L477.30 234.23Q477.30 232.27 477.99 230.66Q478.69 229.05 480.00 228.11Q481.31 227.18 483.06 227.18L483.06 227.18Q485.97 227.18 487.40 228.80Q488.82 230.43 488.82 233.51L488.82 233.51L488.77 234.66L480.04 234.66Q480.04 237.08 481.08 238.61Q482.11 240.14 483.93 240.14L483.93 240.14Q485.28 240.14 486.22 239.56Q487.15 238.98 487.96 237.83L487.96 237.83L488.54 238.26Q487.58 239.85 486.32 240.57Q485.05 241.29 483.35 241.29L483.35 241.29ZM480.04 233.51L486.09 233.51Q486.09 230.98 485.34 229.65Q484.59 228.33 483.06 228.33L483.06 228.33Q482.20 228.33 481.51 229.00Q480.82 229.68 480.43 230.86Q480.04 232.04 480.04 233.51L480.04 233.51ZM497.23 241.29L492.77 230.78Q492.08 229.16 491.44 228.52Q490.81 227.87 489.77 227.81L489.77 227.81L489.77 227.23Q489.92 227.23 490.19 227.20Q490.46 227.18 490.75 227.18L490.75 227.18Q492.28 227.18 493.52 227.94Q494.76 228.70 495.65 230.78L495.65 230.78L498.24 236.97L502.27 227.46L503.71 227.46L497.81 241.29L497.23 241.29ZM511.34 241.29Q509.39 241.29 508.03 240.35Q506.68 239.42 505.99 237.82Q505.30 236.22 505.30 234.23L505.30 234.23Q505.30 232.27 505.99 230.66Q506.68 229.05 507.99 228.11Q509.30 227.18 511.06 227.18L511.06 227.18Q513.97 227.18 515.39 228.80Q516.82 230.43 516.82 233.51L516.82 233.51L516.76 234.66L508.03 234.66Q508.03 237.08 509.07 238.61Q510.11 240.14 511.92 240.14L511.92 240.14Q513.27 240.14 514.21 239.56Q515.15 238.98 515.95 237.83L515.95 237.83L516.53 238.26Q515.58 239.85 514.31 240.57Q513.04 241.29 511.34 241.29L511.34 241.29ZM508.03 233.51L514.08 233.51Q514.08 230.98 513.33 229.65Q512.58 228.33 511.06 228.33L511.06 228.33Q510.19 228.33 509.50 229.00Q508.81 229.68 508.42 230.86Q508.03 232.04 508.03 233.51L508.03 233.51ZM520.36 241.00L520.36 230.92Q520.36 229.45 519.96 228.75Q519.55 228.04 518.34 228.04L518.34 228.04L518.06 228.04L518.06 227.46L520.36 227.46Q521.45 227.46 522.02 227.77Q522.58 228.07 522.81 228.76L522.81 228.76L522.95 228.76Q523.47 228.10 524.35 227.64Q525.23 227.18 526.41 227.18L526.41 227.18Q527.56 227.18 528.14 227.61L528.14 227.61Q528.62 227.98 529.14 228.90L529.14 228.90L527.99 229.77Q527.67 229.34 527.07 229.12Q526.46 228.90 525.69 228.90L525.69 228.90Q524.82 228.90 524.10 229.29Q523.38 229.68 522.95 230.34L522.95 230.34L522.95 241.00L520.36 241.00ZM532.51 246.76L532.51 245.90Q533.92 245.90 534.83 245.25Q535.74 244.60 536.40 242.87L536.40 242.87L536.98 241.29L532.37 230.06Q531.56 227.98 529.20 227.75L529.20 227.75L529.20 227.18L531.65 227.18Q534.15 227.18 535.10 229.48L535.10 229.48L538.39 237.46L542.02 227.46L543.46 227.46L537.84 242.87Q537.01 245.15 536.00 245.95Q534.99 246.76 533.38 246.76L533.38 246.76L532.51 246.76ZM551.66 241.29Q549.71 241.29 548.27 240.35Q546.83 239.42 546.08 237.80Q545.33 236.19 545.33 234.23L545.33 234.23Q545.33 232.27 546.08 230.66Q546.83 229.05 548.27 228.11Q549.71 227.18 551.66 227.18L551.66 227.18Q553.62 227.18 555.06 228.11Q556.50 229.05 557.25 230.66Q558.00 232.27 558.00 234.23L558.00 234.23Q558.00 236.19 557.25 237.80Q556.50 239.42 555.06 240.35Q553.62 241.29 551.66 241.29L551.66 241.29ZM551.66 240.14Q552.73 240.14 553.55 239.36Q554.37 238.58 554.82 237.23Q555.26 235.87 555.26 234.23L555.26 234.23Q555.26 232.59 554.82 231.24Q554.37 229.88 553.55 229.11Q552.73 228.33 551.66 228.33L551.66 228.33Q550.60 228.33 549.78 229.11Q548.96 229.88 548.51 231.24Q548.06 232.59 548.06 234.23L548.06 234.23Q548.06 235.87 548.51 237.23Q548.96 238.58 549.78 239.36Q550.60 240.14 551.66 240.14L551.66 240.14ZM561.80 241.00L561.80 230.92Q561.80 229.45 561.40 228.75Q561.00 228.04 559.79 228.04L559.79 228.04L559.21 228.04L559.21 227.46L561.80 227.46Q562.87 227.46 563.43 227.75Q563.99 228.04 564.25 228.62L564.25 228.62L564.39 228.62Q565.00 228.01 565.96 227.59Q566.93 227.18 568.14 227.18L568.14 227.18Q570.30 227.18 571.67 228.33Q573.03 229.48 573.03 232.36L573.03 232.36L573.03 241.00L570.44 241.00L570.44 232.36Q570.44 230.34 569.54 229.41Q568.63 228.47 567.27 228.47L567.27 228.47Q565.75 228.47 564.39 230.00L564.39 230.00L564.39 241.00L561.80 241.00ZM582.31 241.29Q580.35 241.29 579.00 240.35Q577.64 239.42 576.95 237.82Q576.26 236.22 576.26 234.23L576.26 234.23Q576.26 232.27 576.95 230.66Q577.64 229.05 578.95 228.11Q580.26 227.18 582.02 227.18L582.02 227.18Q584.93 227.18 586.35 228.80Q587.78 230.43 587.78 233.51L587.78 233.51L587.72 234.66L579.00 234.66Q579.00 237.08 580.03 238.61Q581.07 240.14 582.88 240.14L582.88 240.14Q584.24 240.14 585.17 239.56Q586.11 238.98 586.92 237.83L586.92 237.83L587.49 238.26Q586.54 239.85 585.27 240.57Q584.01 241.29 582.31 241.29L582.31 241.29ZM579.00 233.51L585.04 233.51Q585.04 230.98 584.30 229.65Q583.55 228.33 582.02 228.33L582.02 228.33Q581.16 228.33 580.46 229.00Q579.77 229.68 579.38 230.86Q579.00 232.04 579.00 233.51L579.00 233.51Z" data-element="slogan" data-text-path="" data-text="for everyone" data-font-family="Philosopher" fill="#ffffff" fill-opacity="1"></path></g></g></svg>